<svg width="32" height="32" viewBox="0 0 32 32" fill="none" xmlns="http://www.w3.org/2000/svg">
<g id="fluent:people-community-16-filled">
<path id="Vector" d="M6 6C6 4.93913 6.42143 3.92172 7.17157 3.17157C7.92172 2.42143 8.93913 2 10 2C11.0609 2 12.0783 2.42143 12.8284 3.17157C13.5786 3.92172 14 4.93913 14 6C14 7.06087 13.5786 8.07828 12.8284 8.82843C12.0783 9.57857 11.0609 10 10 10C8.93913 10 7.92172 9.57857 7.17157 8.82843C6.42143 8.07828 6 7.06087 6 6ZM19.558 9.168L19.642 9.232C20.4906 9.86101 21.5535 10.1288 22.5989 9.97702C23.6442 9.82521 24.587 9.26609 25.2216 8.42167C25.8562 7.57725 26.1311 6.51611 25.9861 5.4698C25.8412 4.42349 25.2883 3.47698 24.4481 2.83682C23.6079 2.19666 22.5486 1.91483 21.5014 2.05283C20.4541 2.19084 19.504 2.73746 18.8583 3.57343C18.2126 4.40939 17.9238 5.46682 18.0549 6.51495C18.186 7.56308 18.7263 8.51681 19.558 9.168ZM12.536 12C12.7872 11.5243 13.1318 11.1042 13.5491 10.7648C13.9664 10.4254 14.4479 10.1736 14.9648 10.0245C15.4816 9.87549 16.0233 9.83223 16.5572 9.89734C17.0912 9.96246 17.6066 10.1346 18.0725 10.4035C18.5384 10.6724 18.9453 11.0325 19.2688 11.4622C19.5923 11.892 19.8258 12.3826 19.9554 12.9047C20.0849 13.4268 20.1078 13.9697 20.0227 14.5008C19.9376 15.032 19.7462 15.5405 19.46 15.996C18.9094 16.8723 18.0407 17.501 17.0363 17.7502C16.0319 17.9994 14.97 17.8497 14.0737 17.3324C13.1773 16.8151 12.5164 15.9706 12.2297 14.9762C11.9429 13.9819 12.0527 12.9151 12.536 12ZM5 12H10.34C9.98455 13.0151 9.90726 14.1069 10.1162 15.1619C10.3251 16.217 10.8125 17.1969 11.528 18H11C9.96887 17.9999 8.9629 18.3184 8.11977 18.912C7.27664 19.5056 6.63756 20.3452 6.29 21.316C5.61867 21.0463 4.9901 20.6805 4.424 20.23C2.92 19.02 2 17.232 2 15C2 14.2044 2.31607 13.4413 2.87868 12.8787C3.44129 12.3161 4.20435 12 5 12ZM21 18C23.17 18 25.018 19.382 25.71 21.316C26.39 21.038 27.018 20.676 27.576 20.23C29.08 19.02 30 17.232 30 15C30 14.2044 29.6839 13.4413 29.1213 12.8787C28.5587 12.3161 27.7956 12 27 12H21.66C21.88 12.626 22 13.3 22 14C22.0018 15.4762 21.4576 16.901 20.472 18H21ZM23.774 21.856C23.92 22.208 24 22.596 24 23C24 25.232 23.082 27.02 21.576 28.23C20.094 29.42 18.106 30 16 30C13.894 30 11.906 29.42 10.424 28.23C8.92 27.02 8 25.232 8 23C7.99894 22.6057 8.07582 22.2152 8.22621 21.8507C8.3766 21.4862 8.59754 21.1551 8.87633 20.8763C9.15511 20.5975 9.48625 20.3766 9.8507 20.2262C10.2152 20.0758 10.6057 19.9989 11 20H21C21.5942 19.9999 22.1751 20.1762 22.6689 20.5066C23.1628 20.837 23.5474 21.3067 23.774 21.856Z" fill="#EBE8FF"/>
</g>
</svg>
