<svg width="151" height="150" viewBox="0 0 151 150" fill="none" xmlns="http://www.w3.org/2000/svg">
<g id="Frame 43">
<g id="Group 14">
<path id="Ellipse 7" d="M75.7436 113.789C83.8539 113.789 91.6198 114.83 98.8379 115.912C99.7094 116.043 100.576 116.174 101.437 116.305C107.594 117.242 113.441 118.132 118.475 118.181C124.223 118.238 129.676 117.225 133.597 113.262C137.487 109.331 139.217 103.154 139.217 94.5099C139.217 59.436 110.801 31 75.7438 31C40.6866 31 12.2703 59.436 12.2703 94.5099C12.2703 103.154 14.0004 109.331 17.89 113.262C21.8111 117.225 27.2642 118.238 33.0119 118.181C38.0468 118.132 43.8929 117.242 50.0503 116.305C50.9111 116.174 51.7779 116.043 52.6494 115.912C59.8674 114.83 67.6333 113.789 75.7436 113.789Z" fill="#E1BFF7" stroke="white" stroke-width="6"/>
<path id="Vector 1" d="M45.0931 62.166C46.8736 68.1988 58.3278 73.4271 64.9748 62.166" stroke="black" stroke-width="4"/>
<path id="Vector 2" d="M86.5134 62.166C88.2939 68.1988 99.7481 73.4271 106.395 62.166" stroke="black" stroke-width="4"/>
<path id="Vector 3" d="M64.9744 83.7051C66.7548 89.7378 78.209 94.9662 84.8561 83.7051" stroke="black" stroke-width="4"/>
</g>
</g>
</svg>
