<svg width="32" height="32" viewBox="0 0 32 32" fill="none" xmlns="http://www.w3.org/2000/svg">
<g id="material-symbols:settings">
<path id="Vector" d="M12.3334 29.3327L11.8001 25.066C11.5112 24.9549 11.2392 24.8216 10.9841 24.666C10.729 24.5105 10.4788 24.3438 10.2334 24.166L6.26676 25.8327L2.6001 19.4993L6.03343 16.8993C6.01121 16.7438 6.0001 16.594 6.0001 16.45V15.55C6.0001 15.4051 6.01121 15.2549 6.03343 15.0993L2.6001 12.4993L6.26676 6.16602L10.2334 7.83268C10.4779 7.6549 10.7334 7.48824 11.0001 7.33268C11.2668 7.17713 11.5334 7.04379 11.8001 6.93268L12.3334 2.66602H19.6668L20.2001 6.93268C20.489 7.04379 20.7614 7.17713 21.0174 7.33268C21.2734 7.48824 21.5232 7.6549 21.7668 7.83268L25.7334 6.16602L29.4001 12.4993L25.9668 15.0993C25.989 15.2549 26.0001 15.4051 26.0001 15.55V16.4487C26.0001 16.5936 25.9779 16.7438 25.9334 16.8993L29.3668 19.4993L25.7001 25.8327L21.7668 24.166C21.5223 24.3438 21.2668 24.5105 21.0001 24.666C20.7334 24.8216 20.4668 24.9549 20.2001 25.066L19.6668 29.3327H12.3334ZM16.0668 20.666C17.3557 20.666 18.4557 20.2105 19.3668 19.2994C20.2779 18.3882 20.7334 17.2882 20.7334 15.9993C20.7334 14.7105 20.2779 13.6105 19.3668 12.6993C18.4557 11.7882 17.3557 11.3327 16.0668 11.3327C14.7557 11.3327 13.6499 11.7882 12.7494 12.6993C11.849 13.6105 11.3992 14.7105 11.4001 15.9993C11.4001 17.2882 11.8503 18.3882 12.7508 19.2994C13.6512 20.2105 14.7565 20.666 16.0668 20.666Z" fill="#EBE8FF"/>
</g>
</svg>
