<svg width="28" height="28" viewBox="0 0 28 28" fill="none" xmlns="http://www.w3.org/2000/svg">
<g id="material-symbols:share-outline">
<path id="Vector" d="M20.9998 25.6673C20.0276 25.6673 19.2012 25.327 18.5206 24.6465C17.8401 23.9659 17.4998 23.1395 17.4998 22.1673C17.4998 22.0312 17.5095 21.89 17.529 21.7438C17.5484 21.5976 17.5776 21.4665 17.6165 21.3506L9.39148 16.5673C9.06093 16.859 8.69148 17.0877 8.28315 17.2533C7.87482 17.419 7.44704 17.5014 6.99982 17.5007C6.02759 17.5007 5.20121 17.1604 4.52065 16.4798C3.84009 15.7993 3.49982 14.9729 3.49982 14.0007C3.49982 13.0284 3.84009 12.202 4.52065 11.5215C5.20121 10.8409 6.02759 10.5007 6.99982 10.5007C7.44704 10.5007 7.87482 10.5835 8.28315 10.7492C8.69148 10.9148 9.06093 11.1431 9.39148 11.434L17.6165 6.65065C17.5776 6.53398 17.5484 6.40293 17.529 6.25748C17.5095 6.11204 17.4998 5.97087 17.4998 5.83398C17.4998 4.86176 17.8401 4.03537 18.5206 3.35482C19.2012 2.67426 20.0276 2.33398 20.9998 2.33398C21.972 2.33398 22.7984 2.67426 23.479 3.35482C24.1595 4.03537 24.4998 4.86176 24.4998 5.83398C24.4998 6.80621 24.1595 7.6326 23.479 8.31315C22.7984 8.99371 21.972 9.33398 20.9998 9.33398C20.5526 9.33398 20.1248 9.25154 19.7165 9.08665C19.3081 8.92176 18.9387 8.6931 18.6081 8.40065L10.3831 13.184C10.422 13.3007 10.4512 13.4321 10.4707 13.5783C10.4901 13.7245 10.4998 13.8653 10.4998 14.0007C10.4998 14.1368 10.4901 14.2779 10.4707 14.4242C10.4512 14.5704 10.422 14.7014 10.3831 14.8173L18.6081 19.6006C18.9387 19.309 19.3081 19.0807 19.7165 18.9158C20.1248 18.7509 20.5526 18.6681 20.9998 18.6673C21.972 18.6673 22.7984 19.0076 23.479 19.6882C24.1595 20.3687 24.4998 21.1951 24.4998 22.1673C24.4998 23.1395 24.1595 23.9659 23.479 24.6465C22.7984 25.327 21.972 25.6673 20.9998 25.6673ZM20.9998 7.00065C21.3304 7.00065 21.6076 6.88904 21.8316 6.66582C22.0556 6.4426 22.1673 6.16532 22.1665 5.83398C22.1665 5.50343 22.0545 5.22654 21.8305 5.00332C21.6065 4.7801 21.3296 4.6681 20.9998 4.66732C20.6693 4.66732 20.3924 4.77932 20.1691 5.00332C19.9459 5.22732 19.8339 5.50421 19.8331 5.83398C19.8331 6.16454 19.9452 6.44182 20.1691 6.66582C20.3932 6.88982 20.67 7.00143 20.9998 7.00065ZM6.99982 15.1673C7.33037 15.1673 7.60765 15.0553 7.83165 14.8313C8.05565 14.6073 8.16726 14.3304 8.16648 14.0007C8.16648 13.6701 8.05448 13.3932 7.83048 13.17C7.60648 12.9468 7.32959 12.8348 6.99982 12.834C6.66926 12.834 6.39237 12.946 6.16915 13.17C5.94593 13.394 5.83393 13.6709 5.83315 14.0007C5.83315 14.3312 5.94515 14.6085 6.16915 14.8325C6.39315 15.0565 6.67004 15.1681 6.99982 15.1673ZM20.9998 23.334C21.3304 23.334 21.6076 23.222 21.8316 22.998C22.0556 22.774 22.1673 22.4971 22.1665 22.1673C22.1665 21.8368 22.0545 21.5599 21.8305 21.3367C21.6065 21.1134 21.3296 21.0014 20.9998 21.0007C20.6693 21.0007 20.3924 21.1126 20.1691 21.3367C19.9459 21.5606 19.8339 21.8375 19.8331 22.1673C19.8331 22.4979 19.9452 22.7752 20.1691 22.9991C20.3932 23.2232 20.67 23.3348 20.9998 23.334Z" fill="#402353" fill-opacity="0.9"/>
</g>
</svg>
