<svg width="32" height="32" viewBox="0 0 32 32" fill="none" xmlns="http://www.w3.org/2000/svg">
<g id="mdi:events">
<path id="Vector" d="M27.9999 22.6673V10.6673H9.33325V22.6673H27.9999ZM27.9999 4.00065C28.7072 4.00065 29.3854 4.2816 29.8855 4.7817C30.3856 5.2818 30.6666 5.96007 30.6666 6.66732V22.6673C30.6666 23.3746 30.3856 24.0528 29.8855 24.5529C29.3854 25.053 28.7072 25.334 27.9999 25.334H9.33325C8.62601 25.334 7.94773 25.053 7.44763 24.5529C6.94754 24.0528 6.66659 23.3746 6.66659 22.6673V6.66732C6.66659 5.96007 6.94754 5.2818 7.44763 4.7817C7.94773 4.2816 8.62601 4.00065 9.33325 4.00065H10.6666V1.33398H13.3333V4.00065H23.9999V1.33398H26.6666V4.00065H27.9999ZM3.99992 28.0007H22.6666V30.6673H3.99992C3.29267 30.6673 2.6144 30.3864 2.1143 29.8863C1.6142 29.3862 1.33325 28.7079 1.33325 28.0007V12.0007H3.99992V28.0007ZM25.3333 20.0007H19.9999V14.6673H25.3333V20.0007Z" fill="#EBE8FF"/>
</g>
</svg>
