<svg width="32" height="32" viewBox="0 0 32 32" fill="none" xmlns="http://www.w3.org/2000/svg">
<g id="mdi:recent">
<path id="Vector" d="M17.9999 10.6667H15.9999V17.3333L21.7066 20.72L22.6666 19.1067L17.9999 16.3333V10.6667ZM17.3333 4C14.1507 4 11.0984 5.26428 8.84797 7.51472C6.59753 9.76515 5.33325 12.8174 5.33325 16H1.33325L6.61325 21.3733L11.9999 16H7.99992C7.99992 13.5246 8.98325 11.1507 10.7336 9.40034C12.4839 7.65 14.8579 6.66667 17.3333 6.66667C19.8086 6.66667 22.1826 7.65 23.9329 9.40034C25.6833 11.1507 26.6666 13.5246 26.6666 16C26.6666 18.4754 25.6833 20.8493 23.9329 22.5997C22.1826 24.35 19.8086 25.3333 17.3333 25.3333C14.7599 25.3333 12.4266 24.28 10.7466 22.5867L8.85325 24.48C9.96188 25.6008 11.2828 26.4894 12.7388 27.0938C14.1949 27.6982 15.7568 28.0063 17.3333 28C20.5159 28 23.5681 26.7357 25.8185 24.4853C28.069 22.2348 29.3333 19.1826 29.3333 16C29.3333 12.8174 28.069 9.76515 25.8185 7.51472C23.5681 5.26428 20.5159 4 17.3333 4Z" fill="#EBE8FF"/>
</g>
</svg>
