<svg width="34" height="34" viewBox="0 0 34 34" fill="none" xmlns="http://www.w3.org/2000/svg">
<path id="Vector" d="M17 8.11111C17 6.22513 16.3257 4.41639 15.1255 3.0828C13.9253 1.7492 12.2974 1 10.6 1H1V27.6667H12.2C13.473 27.6667 14.6939 28.2286 15.5941 29.2288C16.4943 30.229 17 31.5855 17 33M17 8.11111V33M17 8.11111C17 6.22513 17.6743 4.41639 18.8745 3.0828C20.0747 1.7492 21.7026 1 23.4 1H33V27.6667H21.8C20.527 27.6667 19.3061 28.2286 18.4059 29.2288C17.5057 30.229 17 31.5855 17 33M7.4 9.88889H10.6M7.4 17H10.6M23.4 9.88889H26.6M23.4 17H26.6" stroke="#EBE8FF" stroke-width="2" stroke-linecap="round" stroke-linejoin="round"/>
</svg>
